<?xml version="1.0" encoding="UTF-8" standalone="no"?>
<!-- Created with Inkscape (http://www.inkscape.org/) -->

<svg
   xmlns:dc="http://purl.org/dc/elements/1.1/"
   xmlns:cc="http://creativecommons.org/ns#"
   xmlns:rdf="http://www.w3.org/1999/02/22-rdf-syntax-ns#"
   xmlns:svg="http://www.w3.org/2000/svg"
   xmlns="http://www.w3.org/2000/svg"
   xmlns:sodipodi="http://sodipodi.sourceforge.net/DTD/sodipodi-0.dtd"
   xmlns:inkscape="http://www.inkscape.org/namespaces/inkscape"
   width="1000"
   height="1684.4139"
   viewBox="0 0 264.58333 445.66787"
   version="1.1"
   id="svg8"
   inkscape:version="0.92.2 (5c3e80d, 2017-08-06)"
   sodipodi:docname="Java (Old).svg">
  <defs
     id="defs2" />
  <sodipodi:namedview
     id="base"
     pagecolor="#ffffff"
     bordercolor="#666666"
     borderopacity="1.0"
     inkscape:pageopacity="0.0"
     inkscape:pageshadow="2"
     inkscape:zoom="0.24748737"
     inkscape:cx="1595.0525"
     inkscape:cy="734.78735"
     inkscape:document-units="px"
     inkscape:current-layer="layer1"
     showgrid="false"
     inkscape:window-width="1366"
     inkscape:window-height="705"
     inkscape:window-x="-8"
     inkscape:window-y="-8"
     inkscape:window-maximized="1"
     units="px" />
  <metadata
     id="metadata5">
    <rdf:RDF>
      <cc:Work
         rdf:about="">
        <dc:format>image/svg+xml</dc:format>
        <dc:type
           rdf:resource="http://purl.org/dc/dcmitype/StillImage" />
        <dc:title></dc:title>
      </cc:Work>
    </rdf:RDF>
  </metadata>
  <g
     inkscape:label="Layer 1"
     inkscape:groupmode="layer"
     id="layer1"
     transform="translate(0,148.66787)">
    <path
       style="clip-rule:evenodd;fill:#cc2229;fill-rule:evenodd;stroke-width:2.38216686"
       inkscape:connector-curvature="0"
       d="m 156.22965,-63.808627 -0.9624,-0.481198 v -0.802794 c 6.25795,-5.855364 12.75412,-11.789338 19.09069,-17.80431 2.40599,-3.287394 4.89058,-6.655771 7.37995,-9.945545 6.17457,-7.217966 8.41619,-22.054096 4.16879,-30.472676 -6.73677,-13.63553 -14.19533,-18.2069 -28.47404,-22.29708 -4.73098,-0.5622 -4.73098,-0.5622 -5.3694,-0.88379 -17.00629,0 -29.43406,4.81198 -42.50739,15.87953 -2.16539,2.72996 -4.97158,5.45516 -7.21796,8.10174 -9.380977,15.39833 -13.630766,31.678058 -14.836141,49.801583 -1.200614,18.366506 -1.121997,24.703068 -1.121997,26.384879 0.159601,-0.07861 0.319209,-0.159608 0.481198,-0.159608 0.159601,-0.08099 0.24298,-0.08099 0.32159,-0.159601 4.090181,-2.808576 9.223748,-11.710735 11.389138,-16.122506 3.928202,-14.354934 10.667352,-27.74748 14.514542,-42.104797 0.88379,-5.69576 1.36498,-11.14854 1.68419,-16.67993 h 0.88379 c 1.04339,2.4846 1.04339,2.4846 1.20299,3.84958 0,0.0786 0.081,0.15961 0.081,0.2406 0,2.56559 -0.081,5.05258 -0.081,7.53717 -1.76518,14.917135 -8.66394,30.477445 -13.79512,44.51079 a 23.202304,23.202304 0 0 0 -0.31921,2.486979 c 2.16539,-0.800406 4.3284,-3.049168 6.25319,-4.571378 a 854.35461,854.35461 0 0 1 13.87611,-9.223749 c 4.40939,-4.49038 3.60899,-11.789338 4.00919,-17.644709 h 1.52459 c 1.28398,4.25217 -0.16199,8.742558 1.76518,12.751741 1.04101,0.402588 2.16539,0.883785 3.2874,1.283985 0.4002,0.962396 0.4002,0.962396 0.32159,2.806196 -6.17696,3.287393 -5.61477,3.370765 -5.53616,10.667341 4.65476,0.240599 16.12251,-14.676531 19.81248,-3.608983 -0.24298,5.533774 -2.24638,1.765183 -4.25216,0.800407 -4.1688,0.400207 -10.98656,6.014972 -14.67653,8.33997 -0.80279,0.643179 -1.52459,1.364976 -2.32738,2.005782 -1.4436,3.127785 -2.96818,2.968177 -6.09597,3.928192 v 0.643186 c -4.09018,2.16539 -8.26135,6.977368 -8.98315,11.708347 0.48358,1.283993 0.48358,1.283993 1.76281,2.808577 h 1.12438 c 9.46435,-8.258972 23.33808,-18.847704 36.57102,-18.847704 0.40021,0.32159 0.80041,0.640806 1.28399,0.962396 v 1.043386 c -3.85196,1.362603 -7.85877,1.605583 -11.62736,2.727586 -5.93635,2.646588 -5.93635,2.646588 -11.31053,5.614765 -3.12539,2.003401 -11.71072,8.180362 -12.67074,10.824569 -1.92717,0.562188 -10.90794,16.279725 -12.35153,19.250284 -0.64081,2.806195 -2.40599,6.17458 0.081,8.659178 2.80619,1.3626027 7.13697,3.9305735 10.74596,3.5279926 0.4812,-2.0843989 0.72179,-5.6123906 1.36497,-7.6991636 0,-6.736769 -6.73676,-4.249789 -7.61816,-8.33997 4.00918,-0.07861 5.21217,1.684192 8.98315,2.486987 l 1.20299,-0.962396 c 1.44121,-2.084399 20.6915,-29.915252 24.93891,-23.095111 -0.15722,3.366003 -6.25319,5.131186 -7.53718,8.580568 -1.3626,0.481198 -2.72758,1.843794 -3.285,3.208777 -0.24299,0.08099 -0.48359,0.159608 -0.64319,0.240599 -3.44938,4.649988 -11.14854,12.029944 -10.26476,18.685714 -1.76519,3.3683845 -2.40837,3.8495823 -2.40837,7.9397632 0.40259,0.3192088 0.72418,0.7194156 1.12438,1.0410055 13.23056,6.0983509 23.33571,8.4233417 19.48851,24.8626753 -0.7218,2.24639 -2.24639,5.371787 -2.24639,7.858774 l -12.83035,20.050698 a 2.4321923,2.4321923 0 0 1 -0.56219,0.4002 c -1.68419,2.887186 -1.8438,3.046794 -2.00578,3.687593 l -2.00341,3.127785 c -3.77096,1.924791 -4.00918,9.302365 -8.18035,8.180362 0,-3.370765 0.80041,-4.252163 2.4846,-7.055977 v -0.24298 c 1.20061,-1.522203 2.32499,-3.046795 3.44937,-4.571379 1.92479,-2.084392 4.81198,-5.531393 5.93398,-8.099364 a 103.05968,103.05968 0 0 0 3.60899,-5.455164 c 0.081,0 0.081,-0.07861 0.081,-0.07861 0,0 0.081,-0.081 0.081,-0.159608 1.122,-1.843793 2.244,-3.689974 3.2064,-5.533774 a 0.97668837,0.97668837 0 0 0 0.32159,-0.721797 c 0.4812,-0.881397 0.96002,-1.765183 1.36499,-2.646587 h 0.15722 c 6.01735,-7.298958 8.10175,-17.966301 0.72179,-24.7816799 -4.09018,-2.0034009 -9.14276,-4.97158541 -13.55453,-4.80959646 -1.2816,8.74016956 10.50536,15.95813536 10.90794,24.13849936 -0.4002,-0.321596 -0.8814,-0.562195 -1.28398,-0.800406 -6.01259,-7.939765 -11.71074,-14.3549439 -14.19533,-23.90028212 -3.36839,-3.60898318 -6.41518,-3.77097208 -10.90556,-4.97396648 -0.40021,-0.07861 -0.88379,-0.07861 -1.28399,-0.1596079 v 0.8004135 c 0.8814,0.8837787 1.7628,1.8461742 2.64659,2.8085697 1.68419,2.72519756 4.41177,7.3775742 4.41177,10.9079405 a 24.336216,24.336216 0 0 0 -1.76518,9.0617658 c 1.44358,1.843794 4.24978,5.131189 10.66734,11.389141 -7.61818,-3.527985 -10.66734,-8.501954 -12.35154,-8.420963 -2.16539,4.009192 -4.65237,7.939765 -7.21796,11.870338 0.081,0.07862 0.081,0.159608 0.081,0.240599 l -3.768593,5.131193 c -0.32159,0 -0.562189,0.159601 -0.883779,0.240599 v 0.881398 l -2.891955,3.932961 c -0.159601,0.08099 -0.397819,0.159601 -0.640799,0.24298 -1.762809,2.965796 -3.770972,5.212177 -7.296576,5.612384 -0.721797,-3.127786 2.646587,-3.687593 3.206395,-5.771992 h -0.07861 c 4.490381,-3.770972 6.655771,-7.939763 8.74017,-12.110935 1.124384,-1.362602 2.405989,-2.968178 2.405989,-4.492769 h -0.07861 c 0.319208,-0.719415 0.800406,-1.441212 1.283988,-2.163009 0.48119,-0.321589 0.56219,-0.400199 1.6032,-1.686573 0.24059,-0.640798 0.48119,-1.281606 0.72179,-1.843795 0.4002,-0.802795 0.71941,-1.684192 0.80041,-2.567978 0.0786,-0.478816 0.0786,-0.879016 0,-1.122003 -0.16199,-0.881398 -0.56219,-1.843793 -1.36498,-2.88718 h 0.2406 C 99.84856,11.496427 99.367362,4.6810481 98.645566,-6.0672845 96.477795,-7.8324746 93.431,-11.200859 90.944021,-11.601059 c -3.368385,1.043387 -6.655771,2.0843923 -9.943164,3.2087768 -7.780155,0.5598076 -7.780155,0.5598076 -13.954733,0.5598076 C 53.972753,-9.2760678 41.461613,-15.29104 34.084043,-26.596799 29.67227,-34.217353 26.706472,-40.632525 24.781681,-48.812887 l -0.962395,-8.661559 v -8.099371 -0.319209 c 2.165389,-31.196856 19.891092,-52.369554 47.076378,-64.559104 7.217966,-1.52458 14.035726,-4.73336 21.653899,-4.73336 v 0.8814 c -9.704946,1.84618 -21.013093,8.98316 -28.55027,15.15773 -6.014971,7.05836 -16.039129,19.0883 -17.96392,39.617815 -1.043389,21.413293 6.655774,29.112457 13.311548,33.202638 2.244002,1.605582 20.531899,9.302365 22.9355,5.212184 1.927172,-21.813506 2.806196,-43.2268 8.58295,-63.996917 6.736768,-18.5261 14.836129,-29.59603 32.480849,-38.41482 3.12778,-1.20299 6.25556,-2.32737 9.46435,-3.53036 8.74255,-1.9248 16.27972,-2.00341 25.50347,-0.88141 11.38914,3.04918 22.6949,8.66156 27.99046,20.2913 3.8472,7.93976 1.60558,19.97209 0.9624,23.8979 0,-0.0786 -2.56798,14.116713 -10.90556,24.221866 v 2.405989 c -2.96818,4.487999 -14.03811,12.589751 -20.13169,13.311548 z m 3.44699,94.793565 c 0.56219,-0.321597 1.04339,-0.802795 1.60558,-1.76519 3.52561,-9.864549 -1.122,-13.311551 -8.34235,-18.36412 -7.61578,-3.8495821 -11.70596,-6.9773675 -16.60132,-13.9547349 -1.84141,-4.011571 -2.56559,-4.7309866 -2.80619,-10.8269491 5.37417,-19.967319 21.57529,-34.162653 38.09323,-45.4708 12.03232,-7.539556 12.99472,-8.420961 14.35732,-8.420961 3.93057,-5.774366 7.85877,-12.351534 12.83273,-17.242121 2.08439,0 3.53038,0.24298 5.77438,1.124384 -0.0786,0.07861 -0.87903,0.07861 -1.0434,0.159608 -2.72758,3.046788 -6.41517,7.858765 -8.74255,11.386757 0.7218,1.043387 1.28399,0.159601 1.68419,3.049169 -1.52696,0.640805 -3.1254,1.202994 -4.89058,1.8438 -7.29896,9.383349 -12.18955,21.172694 -9.14276,32.881048 4.09018,9.223748 12.02756,18.125907 18.20213,26.4658697 1.60559,2.9681775 1.60559,2.9681775 2.48937,5.3717852 l -1.92717,-0.7217966 c -9.06415,-12.2705423 -22.4543,-25.9846723 -23.09511,-36.7306303 0.15723,-12.592133 1.84142,-13.795127 4.49039,-22.13509 -0.5622,0 -1.60559,0.800407 -2.0844,0.883786 -17.96392,11.465367 -33.04304,22.375688 -41.94281,42.264397 -1.7628,6.25319 -1.84142,7.780162 -0.5622,14.354942 2.96819,6.7367685 8.25898,9.9431639 14.27872,13.4735302 1.12199,0.8004135 5.93159,4.0091898 6.17457,4.1687978 4.89059,4.009183 8.58057,7.136968 7.93738,14.195329 -0.47881,1.684192 -0.55742,1.762802 -0.64318,3.046794 l -5.37417,9.06176 c -0.80041,0.481197 -1.44121,1.202994 -2.0844,2.16539 -0.7218,0.481197 -0.7218,0.481197 -4.16879,4.571378 -1.12677,0.800407 -2.16777,1.202995 -2.64659,2.48698 -4.49038,1.762809 -10.82695,12.349153 -15.23634,9.540583 0.16199,-2.884805 4.33078,-5.612384 6.65816,-7.377574 0.80041,-2.887187 9.22137,-6.577161 10.18376,-10.026536 3.36601,-3.042032 5.2098,-6.172199 6.5724,-9.459585 z M 73.704241,-10.957879 C 57.90571,-11.198478 49.24177,-14.085664 38.017,-26.756407 26.149045,-44.398735 24.543464,-59.799444 28.633645,-79.609536 c 3.449377,-12.108554 7.379952,-18.364125 14.038109,-26.785084 4.249785,-4.97159 10.745954,-11.54875 18.445117,-15.23634 -2.725199,3.44699 -4.811977,6.49855 -6.815379,8.90216 -9.464349,15.717535 -13.392542,31.037246 -10.505356,49.64197 6.496169,21.253692 19.085921,21.653892 37.052223,26.785078 0,3.530373 -1.603201,6.498558 -1.443593,10.024162 3.368384,0.802787 3.768591,3.046787 5.533774,6.49617 1.043386,1.364983 3.046787,3.289767 2.887186,5.374166 -3.775734,2.405989 -9.788325,3.206395 -14.121485,3.449375 z m 16.120124,-6.658152 c -2.968184,-5.131186 -6.898757,-13.232938 -3.93058,-18.845322 3.689981,-0.802788 8.58295,-2.327379 12.59214,-2.08678 0,0.481198 -0.081,0.962396 -0.081,1.364983 -4.65237,7.055978 -7.539556,11.067549 -7.539556,19.567119 z m -0.240599,-24.300486 c -0.24298,-1.522203 3.287387,-6.815379 4.811978,-7.217967 0,1.927173 -0.883786,5.695764 -2.327379,7.139357 -0.879023,0 -1.681811,0.07861 -2.484599,0.07861 z m 7.699165,0.159608 a 16.093918,16.093918 0 0 1 -1.124385,-0.481198 c 0,-0.483579 0,-0.962396 0.08099,-1.443593 3.206402,-9.223749 5.455164,-15.238721 14.354944,-19.729108 1.92717,-1.283986 10.98893,-8.98315 12.83273,-7.377568 0.15961,3.046788 -1.122,8.420961 -3.2064,10.82695 -7.93976,5.214558 -12.51352,17.242121 -22.937879,18.204517 z m -1.043394,22.537677 c 0,-9.545338 5.855373,-16.039127 11.948953,-22.859274 h 1.44359 c 0.88379,3.85197 0.7218,7.298964 -1.28399,11.148546 -3.1254,4.011564 -6.49378,10.907941 -12.108553,11.710728 z m 2.16539,5.452783 c -0.08099,-0.562195 -0.159601,-1.043393 -0.240599,-1.603201 1.043394,-0.802787 0.881405,-0.883785 2.246392,-1.043386 -0.081,1.043386 -0.081,1.043386 -0.643191,2.56559 -0.481198,0 -0.881404,0.081 -1.362602,0.081 z M 104.5009,10.37443 c -1.12439,-0.8004133 -2.0844,-9.46196596 -1.36261,-10.98893824 2.64659,0.88378558 3.12541,8.50195174 2.00341,10.82933024 -0.2406,0.07861 -0.4812,0.159608 -0.6408,0.159608 z"
       id="path1446" />
    <path
       style="clip-rule:evenodd;fill:#5257a2;fill-rule:evenodd;stroke-width:2.38216686"
       inkscape:connector-curvature="0"
       d="m 183.57692,46.383266 c 2.96818,-0.081 5.93636,-0.081 8.89977,-0.159608 0,-0.161989 0.0786,-0.32159 0.16199,-0.483579 2.0844,-0.481198 4.32602,-1.443593 6.73677,-1.522203 v 1.603194 c -3.77335,2.16539 -6.25795,2.565597 -10.42674,3.049176 -2.0844,0.960014 -4.01157,2.084392 -6.09597,2.806188 -1.04339,-0.159601 -1.04339,-0.159601 -9.62633,1.043394 -3.28501,0.159601 -7.6944,0.962395 -10.82219,0.159601 -0.0834,-0.159601 -0.0834,-0.4002 -0.16199,-0.559808 l 0.47882,-0.481198 -0.15722,-1.843793 c 0.64319,-0.159608 1.27922,-0.240599 1.92241,-0.400207 0,-0.07861 0.0834,-0.240598 0.16198,-0.400206 6.01735,-1.367365 12.59214,-1.607964 18.9287,-2.810951 z m -44.9896,-17.482727 c 2.08439,0 4.09018,0.081 6.17457,0.159608 v 1.283985 a 132.61522,132.61522 0 0 1 -12.50875,1.043394 v -0.321597 c -1.92717,-0.4002 -4.57138,0.478816 -6.01497,-0.159601 v -0.881405 c 0.8814,-0.08099 6.97737,-0.159608 7.53955,-0.802787 z m 10.90556,3.206395 c 2.24638,0 4.57376,-0.08099 6.81538,-0.08099 l 0.0834,-0.238218 12.26816,-1.443593 c 7.61579,-0.562189 15.31733,-2.084392 22.93789,-4.092562 1.60081,-0.4002 2.72758,-0.881397 4.33078,-1.841412 7.29419,-2.968184 15.15296,-4.892977 22.93312,-7.055979 -1.04339,-4.33078 -19.72673,2.646587 -22.05411,4.087795 -1.4412,1.924791 -2.32737,3.127785 -4.89535,3.608983 -1.35783,-0.08099 -2.64182,-0.08099 -3.285,-0.881398 1.4412,-1.524591 4.16879,-1.603201 5.29555,-3.851965 1.60082,-0.640806 2.80619,-1.841419 4.00681,-2.965803 6.57954,-2.327372 12.59451,-4.171172 19.40989,-5.536156 14.67415,0 28.14769,4.492769 37.85501,16.279735 2.4846,0.64318 5.37417,8.501952 6.17458,11.467748 -1.28399,18.123526 -19.32652,33.202638 -32.88105,43.229181 -9.30474,5.212185 -18.04729,10.100391 -28.15244,12.754122 -4.32602,0.400207 -8.73779,0.800406 -13.06857,1.200613 -1.28399,-0.643186 -1.28399,-0.800406 -1.60559,-1.762802 24.94368,-1.927179 43.9486,-17.406498 61.67192,-33.764834 0.0834,-0.240598 0.16199,-0.400206 0.24299,-0.643186 4.33077,-1.603195 7.37995,-11.627356 8.74255,-15.39594 0.0786,-0.081 0.24298,-0.081 0.32159,-0.159608 -0.0786,-1.443594 -0.16199,-2.806196 -0.24298,-4.168791 -0.87902,0 -0.47882,1.684192 -0.40021,2.405989 h -0.4002 c -0.48358,0.643179 -0.96239,1.281604 -1.3626,1.924791 -0.9624,-0.081 -0.9624,-0.081 -1.3626,-0.562196 -0.48358,-4.814359 -0.24298,-11.789338 -4.41177,-14.676525 l -4.09019,0.08099 c -0.48357,0.962396 -0.48357,0.962396 -1.68419,7.777774 -2.64659,8.423342 -6.09596,15.638927 -10.82694,23.257094 -5.61477,7.055977 -11.86795,14.678912 -20.1317,18.766712 v 0.643187 c -1.28398,0.400199 -3.36838,1.362595 -4.41177,1.043386 0,-0.32159 0.0786,-0.562189 0.16199,-0.800406 10.90556,-9.064148 26.14428,-23.50008 28.70749,-38.176605 a 0.61936336,0.61936336 0 0 1 0.3216,-0.159608 c 0,-2.16539 0.0834,-4.33078 0.0834,-6.49617 h -0.56219 c -0.0786,-1.524584 -0.24298,-2.968177 -0.3216,-4.492761 -0.24298,-0.161989 -0.56218,-0.400207 -0.8004,-0.562196 -1.20538,0.321597 -1.20538,0.321597 -4.09018,1.924791 -0.80517,0.802794 -7.54194,12.270543 -11.06755,17.642328 -3.8472,3.770972 -6.49616,8.82116 -10.82694,12.270543 -2.16778,2.806188 -7.69917,8.339962 -11.22716,9.302358 0.3216,-1.765183 1.44121,-2.887187 2.40599,-4.33078 0.72179,-0.481198 9.54296,-11.067541 12.26816,-14.595533 2.16301,-6.49617 6.01497,-12.270543 6.01497,-19.088303 -2.32738,-4.411771 -6.09597,-2.40837 -9.78356,-3.608983 0.47882,-0.962395 2.24162,-1.283985 3.44699,-1.924791 6.97975,0 7.29897,1.443593 10.02655,7.699164 0.4002,0.159608 0.72179,0.32159 1.04338,0.562189 2.40599,-3.849582 2.72759,-5.855364 2.96819,-10.024155 -5.93636,-5.376556 -25.34388,3.368384 -30.79666,6.093582 -4.73098,2.808576 -8.58532,6.014972 -12.75412,9.464347 -4.65237,1.524591 -1.84617,-3.849582 -1.04339,-5.212177 2.0844,-1.684192 4.16879,-3.370766 6.3318,-5.054958 v -1.043393 c -7.13697,0 -11.46298,3.449382 -17.23736,5.774373 l -17.24689,3.046794 v -0.240599 c -9.29997,1.443594 -18.76432,2.327372 -28.06668,2.887187 v -0.240599 c -8.42096,-0.881405 -16.44172,0.640799 -24.78168,0.640799 -8.661564,-0.159601 -17.96631,0.559807 -26.225282,-1.603195 -0.240599,-0.643186 -0.07861,-0.962395 0.562196,-1.043393 15.798528,-0.159601 29.033846,-0.721797 45.070596,-1.043386 1.52459,-0.159608 10.66734,-0.319209 14.03572,-0.559808 6.33657,-0.881405 12.26816,-1.686573 18.28552,-2.246388 -0.0786,-0.240599 -0.0786,-0.481198 -0.15722,-0.721797 -3.13018,-0.402581 -6.73677,0.07862 -9.94794,0.157227 -10.90794,0.32159 -15.39594,1.445975 -26.22527,1.445975 -13.95235,0.319208 -27.907085,0.319208 -41.94043,0.319208 -5.695759,-0.159601 -11.067546,-0.319208 -16.841917,-0.319208 -0.159606,0.159607 -0.319211,0.240598 -0.400205,0.400206 0,0.800407 0,0.800407 0.400205,1.121997 l 6.736767,0.081 0.240599,0.481197 c 4.168792,0.4002 4.168792,0.4002 4.652371,0.721797 -0.883783,2.244 -2.646587,0.397819 -3.046791,1.843793 -2.405988,0 -7.539558,-0.481198 -9.54296,0.319209 l 0.240599,1.364983 6.336564,3.608983 c 2.003402,0 3.368383,-0.802787 5.693378,-0.802787 0.643185,2.005782 1.202992,1.924791 3.770969,2.887186 8.099371,1.765183 16.201116,3.208777 24.781685,3.689974 1.443593,0 21.010716,0.159608 21.172706,0 4.41177,0.400207 8.98076,0.881405 13.47114,0.881405 a 4.6738112,4.6738112 0 0 0 -0.1596,1.043386 c -0.6408,0.159601 -1.44359,0.319209 -2.0844,0.562189 -13.95473,-0.32159 -28.07145,0 -42.023801,-0.08099 -2.405989,0 -22.935504,-1.8438 -23.497695,-3.206395 -4.09018,0 -22.375692,0.559808 -22.216087,-5.455164 0.562191,-0.159608 1.043388,-0.240599 1.60558,-0.32159 5.052576,3.046787 8.823546,3.608983 15.398326,3.449375 -0.08099,-0.402588 -0.08099,-0.721797 -0.08099,-1.043386 C 55.26627,47.419502 53.10088,43.007732 50.532904,40.842342 45.158736,40.280153 29.360206,37.154749 36.01598,28.731407 47.726711,22.154246 62.882057,19.35043 76.036382,16.622851 c 2.968177,-0.562189 12.75174,-0.962396 14.357322,-0.962396 4.168791,-0.32159 8.018373,-0.962395 12.189546,-1.603201 l -0.1596,-0.161982 h 0.24298 l 0.8814,2.887187 c -0.64318,-0.721797 -2.56559,-0.397826 -6.336566,-0.319216 -3.127786,0.319216 -12.832732,0.559815 -18.766713,1.603201 -7.058358,1.684192 -14.273942,3.849584 -21.091704,5.933976 -3.930575,2.005789 -8.740169,1.364984 -11.308145,5.212184 1.043389,3.689975 5.531391,1.603202 8.42096,0.721797 a 709.38308,709.38308 0 0 1 45.873388,-5.612384 c 0.2406,-0.159608 0.40021,-0.240599 0.55981,-0.400207 l -1.281607,2.405989 c -10.907941,0.081 -22.216088,2.567978 -33.043038,3.608983 -1.44121,0.562196 -4.730983,1.202995 -7.699163,2.16539 v 0.643187 c 7.136972,0.08099 14.276324,0.159601 21.49429,0.32159 4.971586,-0.962396 10.024162,-1.043387 15.395947,-1.443594 5.695761,1.443594 7.058361,2.16539 13.795131,2.327379 13.30678,-0.32159 26.62071,-1.122003 39.93226,-1.8438 z M 48.519973,35.396709 v 0.643186 c 0.400204,0.159601 0.883784,0.319209 1.283988,0.559808 -4.011569,0.562189 -6.815379,-0.07861 -10.586349,-1.762802 -0.240599,-0.800407 -0.481198,-0.721797 -0.881402,-0.883786 0.08099,-1.924791 0.08099,-1.924791 0.400204,-2.727578 0.562191,0 1.283988,-0.07861 1.924791,-0.07861 1.283988,1.121996 2.405988,2.16539 4.249786,3.208776 2.968179,0.638418 2.968179,0.638418 3.608982,1.041006 z m 37.292821,35.289418 a 1.4293001,1.4293001 0 0 0 0.32159,0.397825 c 2.727586,0.08099 5.452783,0.161982 8.099371,0.161982 0.4002,0.400207 6.336565,0.321597 7.458565,0.321597 17.72332,0.719416 35.12981,-0.161989 52.85076,-2.246388 4.41177,-1.443593 9.38334,-1.443593 13.95234,-2.968177 l 3.28978,0.081 c 0,0.962388 -0.16199,1.121996 -0.87903,1.927172 -7.37995,3.446994 -17.16351,3.208776 -24.94366,5.131186 -9.78356,0.562189 -11.23192,0.881398 -15.23872,1.043387 -11.14854,0 -22.21609,0.07861 -33.364631,-0.32159 -5.852983,-0.640806 -13.954735,-1.603201 -19.007311,1.684192 0.07861,0.404969 0.159608,0.726559 0.32159,1.043386 2.887186,1.205376 6.736769,1.367365 10.105153,1.846182 9.704953,0.562188 18.607109,1.522203 28.150069,1.684192 a 1.5126759,1.5126759 0 0 1 0.55981,-0.161989 c 21.25131,0 42.2644,-0.32159 63.11789,-4.730987 2.40599,-0.879016 3.93058,-2.163002 6.57955,-2.003401 v 0.960015 c -4.57376,3.930573 -12.59452,4.330779 -18.12591,5.131186 -2.0844,1.283992 -9.54297,0.643187 -9.78356,1.367364 -8.09937,0.638425 -16.27973,1.200614 -24.46009,1.762803 -0.0834,0.07862 -0.24298,0.07862 -0.40497,0.157226 -14.03335,-0.07861 -27.90708,0.08337 -41.861817,-0.800406 -6.896377,1.441205 -11.789345,3.046787 -17.40411,7.294195 -0.081,0.32159 -0.081,0.64318 -0.081,0.962395 4.249789,3.289768 7.217966,-0.562195 12.270543,-0.321596 0.159607,2.084398 0.159607,2.084398 0.481197,2.889567 8.499571,0.321597 17.001527,0.800407 25.582097,0.800407 4.17117,-0.15722 8.33997,-0.24298 12.59213,-0.32159 13.15433,-0.32159 27.10667,-2.646588 40.09901,-5.774373 2.96819,-0.4002 5.69577,-1.841412 8.66394,-1.927172 0.15723,4.25217 -10.98893,5.614765 -13.71651,6.658158 -12.02756,1.605576 -23.8169,4.168791 -35.84685,4.65237 -2.32738,0.32159 -6.25557,-0.400207 -8.18036,0.400207 0.081,0.24298 0.15723,0.562189 0.2406,0.883778 4.49039,0.07862 9.06177,0.238218 13.63314,0.478817 0.0786,0.161989 0.15961,0.24298 0.2406,0.400207 11.87034,0.161989 23.65968,-0.321597 35.60863,-0.557427 1.3626,0 8.02075,0.478817 8.42096,-0.483579 1.60558,0 3.04679,-1.043393 4.49038,-0.800413 0.16199,1.043393 0.16199,1.043393 -0.15722,1.762809 -6.33656,3.611366 -19.8101,7.458556 -27.74748,9.064136 -0.0786,0.15723 -0.0786,0.3216 -0.16199,0.47882 5.05258,0 10.18853,-1.44121 15.07912,-0.87902 0,0.23821 0.0786,0.47881 0.0786,0.80041 -5.77437,3.44699 -12.02756,3.04679 -17.8067,5.13119 -5.21217,0.72179 -6.25318,1.20537 -9.86455,1.68419 0.0834,0.24298 0.24299,0.4002 0.3216,0.64318 4.09018,0.24298 8.09936,0.15722 12.18954,0.0786 0.0834,-0.15722 0.0834,-0.32159 0.16199,-0.47881 4.41177,-0.40021 8.82116,-0.80041 13.23294,-1.28399 0,5.45278 -37.93363,6.81538 -47.87917,7.05836 -6.89876,-0.47882 -13.31393,-0.56219 -19.409903,-3.8472 -6.255571,-0.9624 -13.392539,-1.60558 -18.845322,-4.57376 -1.124385,-1.122 -1.124385,-1.122 -2.727579,-3.61136 -4.249789,-1.52221 -14.595538,-4.24741 -11.146159,-10.984172 1.041006,-0.883785 2.084395,-1.684192 3.125402,-2.567977 0,-0.316828 -0.07861,-0.721797 -0.07861,-1.043387 -3.930575,-2.563215 -6.174576,-4.490388 -7.217965,-4.890587 -2.405988,-2.806196 -2.084396,-2.968185 -2.084396,-6.257959 1.524587,-2.005782 6.655775,-4.568991 6.417557,-6.253183 -2.165389,-1.526972 -4.814358,-3.130166 -6.098346,-4.971585 -1.281606,-6.176954 -0.640803,-5.933974 -5.612385,-8.821161 l -0.08099,-1.283992 c 2.808575,0.159608 4.411773,1.924791 7.298959,2.16539 0.400204,-2.246381 0.400204,-2.246381 0.80279,-3.127786 9.302364,-5.052569 22.616293,-5.212177 32.959657,-1.924791 v 0.721797 c -5.054958,0 -10.024155,-0.64318 -14.757523,-0.64318 -3.046787,1.765183 -11.548742,3.208777 -12.589749,6.014972 2.246384,2.889568 14.917128,4.495143 18.76671,5.13833 z m -15.958136,4.245019 c -4.09018,-1.522203 -7.055977,-1.681804 -8.099366,-5.690994 2.167771,-2.486979 4.330779,0.159608 7.217965,1.603201 2.887184,0.562189 2.887184,0.562189 6.658156,1.927173 -0.883786,1.600813 -4.333161,1.924791 -5.776755,2.16062 z m -2.72758,15.00051 c -2.725199,-0.721797 -4.9692,-1.846181 -5.131187,-4.57376 3.768587,-7.694402 12.592135,-5.452783 19.247906,-4.168798 0.07861,0.400207 0.07861,0.883786 0.159608,1.362603 -4.411771,1.205375 -7.699164,3.611364 -10.267142,7.058358 -1.281605,0.081 -2.644203,0.159608 -4.009185,0.321597 z m 8.661561,14.352554 a 31.782869,31.782869 0 0 1 -6.896375,-2.8062 v -1.526961 c 6.415178,-4.168791 8.339969,-2.641826 15.157728,0.726561 a 1.6055804,1.6055804 0 0 0 -0.240599,0.87902 c -2.646587,1.04339 -5.452783,2.48698 -8.020754,2.72758 z m 18.206898,-2.0844 12.592133,0.24298 v 1.20538 c -1.12438,0.47881 -2.16539,0.95763 -3.28739,1.52221 -5.614762,0 -10.507737,1.36259 -15.879522,-0.16199 0.881404,-1.76519 4.647607,-2.244 6.574779,-2.80858 z m 6.014973,9.62872 c 5.37417,-0.24298 10.58397,-0.56219 15.87714,-0.56219 10.90794,0.40021 22.13509,-2.8062 32.88343,-1.7628 -0.0786,0.0786 -0.0786,0.15722 -0.16199,0.23821 0,1.52697 -24.86029,3.53037 -27.34489,3.77336 -6.73677,0 -13.39254,-0.16199 -20.0507,-0.16199 l -1.44359,-0.3216 c -0.08099,-0.4002 -0.08099,-0.8004 -0.159601,-1.2006 h 0.400201 z m 28.79087,-8.90692 c 0.0786,0.0834 0.1596,0.16199 0.2406,0.16199 6.73915,0.0786 13.47115,0.15722 20.20792,0.32159 0.24298,0.15722 0.48358,0.32159 0.72656,0.4002 -7.29896,2.40599 -14.27871,2.72758 -21.81588,2.40599 v 0.48358 c -6.09597,0 -12.27293,-0.16199 -18.36651,-0.40497 v -0.55743 c 1.76519,-0.72655 3.44938,-1.52696 5.21456,-2.32737 z m -69.051873,28.15007 a 1.6270199,1.6270199 0 0 0 0.321593,0.48357 l 15.717539,0.7218 0.240599,0.47882 c 3.849582,0 7.618166,0.16198 11.389139,0.16198 l 0.1596,0.0786 c 15.479323,0.16198 30.875263,-0.0786 46.354583,-0.0786 l 0.47882,-0.48358 c 7.14174,0 14.35732,0.16199 21.49429,0.16199 0.80041,0.80041 22.3757,0.0786 25.34387,0 0.0786,0.15723 0.15722,0.32159 0.24298,0.40021 16.27974,0.24298 32.88105,0.32159 47.55996,-8.09937 4.9692,-5.77438 -0.80516,-3.61137 -0.48357,-7.53718 2.48459,-1.28398 5.21456,3.28501 5.85298,5.45278 0,10.90556 -21.0917,11.30576 -27.74748,13.47353 l -34.80584,5.1312 c 0,0 -8.33758,0.96239 -8.98077,0.96239 v 0.4002 h 9.38574 c 4.24741,0 8.4162,-0.15722 12.66837,-0.15722 0.4002,0.4002 6.33656,0.32159 7.37994,0.32159 5.77438,0.15722 5.77438,0.15722 8.016,0.63842 0.0834,0.16199 0.16199,0.3216 0.32159,0.5622 -0.9624,0.47881 -1.92241,0.24298 -2.80619,0.80516 -20.2913,0 -40.49684,0.87903 -60.78813,0.9624 a 0.97668837,0.97668837 0 0 0 -0.24299,0.31683 c 0.0786,0.40497 0.0786,0.40497 0.55743,0.56219 8.82116,0.0786 17.64709,0.32159 26.54925,0.32159 a 8558.2442,8558.2442 0 0 1 46.27597,-0.4002 c 0.0786,-0.24298 0.15722,-0.32159 0.23822,-0.48358 13.47354,-1.20061 27.51164,-1.84141 40.10139,-7.85877 2.24639,-2.00578 4.01158,-3.93057 5.37417,-6.49617 4.09018,0.64319 -0.88378,6.41518 -2.56798,7.78016 -8.73778,3.76859 -18.52134,6.17458 -27.66886,8.18036 -9.05938,1.20538 -18.36413,1.7628 -26.70648,5.05258 l -44.58701,3.36838 -30.79903,2.40599 -11.06755,0.56219 c -14.435932,0.0786 -28.390667,-0.16198 -42.426393,-1.92717 -1.443592,-0.56219 -4.411773,-0.88379 -14.195331,-3.52561 -5.774373,-2.24639 -11.148541,-4.73098 -16.279728,-7.69916 a 283.75418,283.75418 0 0 0 -19.25029,-2.64659 C 14.998122,141.57941 0.80279041,138.93521 0,132.52003 c 4.4903842,0.47882 8.0993674,4.2474 13.552147,4.2474 v -0.56219 c -4.0091871,-4.49038 -6.655774,-8.49957 -2.806193,-13.79036 15.79853,-8.82116 28.069072,-12.58975 46.035373,-10.90556 v 0.80041 c -6.898754,2.08439 -22.135094,3.1254 -26.62786,9.06414 0,5.13119 3.849582,5.9316 8.261355,7.53718 7.05836,0.79564 14.11672,1.92241 21.334685,2.16063 z m 38.495819,24.14087 c -2.246388,0.15722 -8.180362,0.15722 -9.783563,-0.4002 -10.90794,-0.16199 -22.697285,-2.96818 -32.881048,-6.09597 L 55.1019,147.75399 c 7.858768,-0.0786 15.717535,-0.0786 23.576307,-0.0786 6.655771,0 12.911341,0.87902 19.407511,0.87902 7.618172,0.16198 16.763312,0.80517 20.610502,0.64318 a 1.3340134,1.3340134 0 0 0 0.3216,0.4002 c 8.82354,0.0834 17.56371,0.0834 26.38488,0 l 0.24298,0.3216 c 6.73677,0 13.47354,0.16199 20.2103,0.16199 0.0786,0.15722 0.15722,0.24298 0.23822,0.4002 2.40598,0.0786 4.81436,0.0786 7.29896,0.15722 1.60558,-0.15722 3.1254,-0.31682 4.73098,0.32159 -1.28399,1.28399 -4.65237,0 -4.89535,0.88379 -11.22716,0.7218 -22.21133,1.84141 -33.52185,2.08439 -2.80619,0.16199 -10.10516,1.68419 -13.55453,1.0434 -9.38098,0.0834 -18.60473,0.56218 -27.907084,0.24059 z m 12.751744,-13.87374 c -2.0844,-0.24298 -15.398332,-0.48358 -17.644719,-0.48358 a 542.45749,542.45749 0 0 0 -11.389139,-0.15722 c -1.684192,-0.0786 -5.212177,0.0786 -6.815378,-0.4002 a 142.12246,142.12246 0 0 0 -6.095965,-0.32159 c -0.159605,-0.64319 -27.028065,-1.44122 -29.753264,-1.60559 -1.362599,-1.04338 -1.362599,-1.04338 -4.330779,-4.33078 l -1.765185,0.0786 c -0.159605,0.9624 -0.238217,1.92718 -0.31921,2.96819 -3.77097,0.24298 -17.563716,-2.72759 -19.8101,-7.13698 0,-4.569 8.10175,-8.89977 12.108554,-8.74255 2.567976,10.18376 8.902158,10.34813 18.847704,12.67313 a 1185.795,1185.795 0 0 0 38.815028,3.447 c 1.443593,0.24298 52.769753,0.47881 57.422123,0.47881 3.61137,-0.23821 8.42096,0 9.46436,0.80517 -2.64659,2.32261 -15.07912,1.84141 -18.7691,2.00578 -1.6032,0.31683 -7.69678,0.15723 -9.30236,0.55743 -6.41041,0.0858 -7.2132,0.32398 -10.66257,0.16437 z"
       id="path1448" />
    <path
       style="clip-rule:evenodd;fill:#cc2229;fill-rule:evenodd;stroke-width:2.38216686"
       inkscape:connector-curvature="0"
       d="m 27.109058,168.04528 h 32.88343 c 2.405988,0.23822 2.084396,4.01157 0.157223,4.569 -5.852984,1.68896 -8.659176,1.04339 -9.140373,8.98315 -0.481198,23.0165 0.24298,45.79239 0.08099,68.89226 -0.159605,16.11774 -3.049173,25.2605 -8.020756,32.88105 -4.971582,7.69917 -12.430146,12.03233 -18.926315,13.55215 -4.490384,0.15722 -10.826948,0.4002 -11.548744,-2.96819 6.57478,-13.31631 12.029942,-2.07962 20.932099,-7.37518 6.977367,-5.21457 5.371786,-32.64283 5.371786,-45.79716 0,-8.89977 -0.559809,-19.16929 -0.881401,-30.63228 -0.240599,-11.46775 -0.319211,-14.92189 -0.883784,-28.15245 -0.559809,-7.85876 -4.168792,-8.49957 -10.024158,-10.02654 -3.289772,0.32159 -2.96818,-3.44699 0,-3.92581 z m 69.773666,26.70647 a 904.12045,904.12045 0 0 0 -5.774373,16.60132 975.85465,975.85465 0 0 0 -6.415172,19.56951 c 1.443593,0 3.049168,0.0786 4.811971,0.0786 h 14.83614 c 1.5222,0 2.96818,-0.0786 4.24979,-0.0786 a 672.96212,672.96212 0 0 0 -5.05258,-15.87953 c -1.8438,-5.69576 -4.009189,-12.43253 -6.655776,-20.2913 z m 3.930576,-8.09936 2.16301,1.20537 c 7.45856,23.25472 15.16011,46.51181 23.57869,69.37108 1.84379,5.85299 6.57716,6.97975 8.49957,7.2942 2.01055,0.0786 2.81095,2.40599 0,2.8848 l -23.97651,0.0834 c -2.48698,0 -2.64659,-2.40599 0,-2.96818 2.325,-0.15723 7.13697,-0.0786 5.29317,-6.97499 -0.081,0 -5.93636,-20.6105 -6.25557,-21.73251 -1.44359,0 -2.96818,-0.0834 -4.73098,-0.0834 H 88.78336 c -1.924791,0 -3.770972,0.0834 -5.452783,0.0834 a 319.87736,319.87736 0 0 0 -4.490388,15.15297 c -1.202994,4.65237 -1.524584,5.21456 -2.167771,8.98315 -0.159601,3.44699 1.043394,4.25217 6.176961,4.569 1.603201,0.80517 1.603201,2.40599 0.08099,2.8848 H 60.876273 c -2.244002,0.0834 -2.084397,-2.72282 0,-2.8848 2.084395,-0.31683 5.293173,-0.7218 8.020755,-5.61477 3.849579,-9.70019 6.014969,-16.11774 10.267139,-28.46927 4.328399,-12.34916 8.661559,-25.82269 13.232938,-40.33962 1.524584,-0.47882 2.965797,-0.96239 4.411771,-1.5222 1.43645,-0.63843 2.720435,-1.28161 4.004424,-1.92241 z m 63.35372,65.2809 7.22035,-17.00153 12.83274,-30.31783 c 1.28398,-4.65237 2.64658,-5.05258 3.28977,-8.82117 0.15722,-3.45176 -1.04339,-4.2474 -6.17935,-4.56899 -1.60081,-0.72657 -1.60081,-2.41076 -0.0786,-2.88957 h 22.0541 c 2.24639,-0.0786 2.16778,2.72758 0,2.88957 -2.00102,0.32159 -5.29078,0.8004 -8.01599,5.69099 l -12.83273,28.06907 -19.09068,44.11297 -3.447,-0.16199 -27.02806,-70.41447 c -1.8438,-5.77437 -6.57716,-6.97498 -8.50195,-7.29419 -2.00579,0 -2.8062,-2.41075 0.081,-2.88957 l 23.90028,-0.16199 c 2.4846,0 2.64658,2.56798 0,3.05156 -2.32738,0.15722 -7.05836,0.0786 -5.21218,6.97498 l 13.14956,34.56525 z m 60.39031,-57.18154 c -1.7628,5.13119 -3.68997,10.66496 -5.69575,16.60132 a 1897.4673,1897.4673 0 0 0 -6.49617,19.56951 c 1.4412,0 3.04679,0.0786 4.81198,0.0786 h 14.83613 c 1.60558,0 3.04679,-0.0786 4.25217,-0.0786 a 708.04906,708.04906 0 0 0 -5.05258,-15.87953 c -1.8438,-5.69576 -4.00681,-12.43253 -6.65578,-20.2913 z m 4.01158,-8.09936 2.163,1.20537 c 7.37995,23.25472 15.07912,46.51181 23.57869,69.37108 1.84618,5.85299 6.49617,6.97975 8.49957,7.2942 2.00579,0.0786 2.72758,2.40599 -0.0786,2.8848 l -23.90028,0.0834 c -2.56321,0 -2.64659,-2.40599 0,-2.96818 2.32738,-0.15723 7.05836,-0.0786 5.21456,-6.97499 -0.0786,0 -5.85298,-20.6105 -6.25795,-21.73251 -1.3626,0 -2.96341,-0.0834 -4.64761,-0.0834 h -16.6037 c -2.00578,0 -3.76859,0.0834 -5.53139,0.0834 -1.68419,5.44802 -3.2064,10.42198 -4.49038,15.15297 -1.20538,4.65237 -1.44122,5.21456 -2.16777,8.98315 -0.0786,3.44699 1.04338,4.25217 6.17933,4.569 1.60082,0.80517 1.60082,2.40599 0.0786,2.8848 H 188.6295 c -2.32738,0.0834 -2.16301,-2.72282 0,-2.8848 2.00578,-0.31683 5.21218,-0.7218 7.93737,-5.61477 3.93058,-9.70019 6.09597,-16.11774 10.34814,-28.46927 A 1366.094,1366.094 0 0 0 220.06695,190.097 c 1.52697,-0.47882 3.04679,-0.96239 4.41177,-1.5222 a 97.156671,97.156671 0 0 0 4.09019,-1.92241 z m 19.00492,10.58396 v -8.89977 h -3.2064 v -1.7628 h 8.49957 v 1.7628 h -3.13016 v 8.89977 z m 6.65816,0 v -10.66496 h 3.20639 l 1.92718,7.2942 1.92241,-7.2942 h 3.21116 v 10.66496 h -2.00579 v -8.42095 l -2.08439,8.42095 h -2.0844 l -2.08439,-8.42095 v 8.42095 z"
       id="path1450" />
  </g>
</svg>
